<svg width="75" height="30" viewBox="0 0 75 30" fill="none" xmlns="http://www.w3.org/2000/svg">
<path d="M72.8204 23.1109V27.6721H64.3731V2.30768H68.9221V23.1109H72.8204ZM36.7258 14.7456C36.3738 14.9152 36.0058 14.9994 35.6469 15.0006V6.84287H35.67C36.0288 6.83999 38.7069 6.94902 38.7069 10.8773C38.7069 12.9306 37.7954 14.2258 36.7258 14.7456ZM23.3942 19.7538L24.6537 8.90826L25.9604 19.7538H23.3942ZM63.5798 6.93749V2.31172H50.6994L48.5792 17.7611L46.485 2.31114H41.8396L42.3594 6.43614C41.824 5.37922 39.9225 2.31114 35.7363 2.31114C35.7092 2.30999 31.0863 2.31114 31.0863 2.31114L31.0685 24.8296L27.6831 2.31172L21.5994 2.30883L18.0963 25.6396L18.0975 2.31172H12.2758L10.1769 15.4177L8.13231 2.31114H2.30769V27.6761H6.89423V15.45L8.98154 27.6761H11.4196L13.4763 15.45V27.6761H22.3188L22.8542 23.775H26.4138L26.9487 27.6761L35.6296 27.6808H35.6354V27.6761H35.6469V19.4434L36.7113 19.2877L38.9135 27.6819H43.4042L43.4031 27.6761H43.4158L40.5248 17.8408C41.989 16.7561 43.6437 14.0077 43.2035 11.3775V11.3763C43.2081 11.4098 45.9317 27.6923 45.9317 27.6923L51.2717 27.6767L54.9219 4.68633V27.6767H63.5798V23.1144H59.4698V17.299H63.5798V12.6663H59.4698V6.93691H63.5798V6.93749Z" fill="#FEFEFE"/>
<path d="M18.1731 27.6923V2.30768H12.2833L10.1833 15.424L8.13577 2.30768H2.30769V27.6923H6.92308V15.4569L8.98673 27.6923H11.4265L13.485 15.4569V27.6923H18.1731Z" fill="#FEFEFE"/>
</svg>
